<svg width="35" height="35" viewBox="0 0 35 35" fill="none" xmlns="http://www.w3.org/2000/svg">
<path d="M17.5 12.8497C14.9345 12.8497 12.8508 14.9298 12.8508 17.5C12.8508 20.069 14.9357 22.1515 17.5 22.1515C20.0655 22.1515 22.1515 20.069 22.1515 17.5C22.1515 14.9298 20.0655 12.8497 17.5 12.8497ZM17.5 20.5403C15.8153 20.5403 14.4585 19.1788 14.4585 17.5C14.4585 15.8212 15.8153 14.4597 17.5 14.4597C19.1672 14.4597 20.5415 15.8212 20.5415 17.5C20.5415 19.1788 19.1847 20.5403 17.5 20.5403Z" fill="#F8CE2A"/>
<path d="M22.6158 11.1487C22.0173 11.1487 21.5425 11.6247 21.5425 12.2232C21.5425 12.8205 22.0173 13.2953 22.6158 13.2953C23.2143 13.2953 23.6903 12.8205 23.6903 12.2232C23.6903 11.6247 23.2131 11.1487 22.6158 11.1487Z" fill="#F8CE2A"/>
<path d="M17.5023 0.175003C7.93099 0.175003 0.173828 7.92984 0.173828 17.5C0.173828 27.0678 7.93099 34.825 17.5023 34.825C27.0678 34.825 34.8273 27.069 34.8273 17.5C34.8273 7.92984 27.0678 0.175003 17.5023 0.175003ZM26.4437 21.3092C26.4437 24.136 24.1348 26.4437 21.2917 26.4437H13.7083C10.864 26.4437 8.55516 24.1348 8.55516 21.3267V13.6897C8.55516 10.864 10.8628 8.55634 13.7083 8.55634H21.2917C24.136 8.55634 26.4437 10.864 26.4437 13.6897V21.3092Z" fill="#F8CE2A"/>
</svg>
