<svg width="33" height="41" viewBox="0 0 33 41" fill="none" xmlns="http://www.w3.org/2000/svg">
<path d="M12.768 23.368V27.456H20.384C21.056 27.456 21.5973 27.6614 22.008 28.072C22.456 28.4827 22.68 29.024 22.68 29.696C22.68 30.368 22.456 30.9094 22.008 31.32C21.5973 31.6934 21.056 31.88 20.384 31.88H12.768V36.696C12.768 37.8534 12.432 38.7494 11.76 39.384C11.1253 40.0187 10.304 40.336 9.296 40.336C8.288 40.336 7.448 40.0187 6.776 39.384C6.14133 38.7494 5.824 37.8534 5.824 36.696V31.88H2.744C2.10933 31.88 1.54933 31.6747 1.064 31.264C0.615998 30.8534 0.391998 30.3307 0.391998 29.696C0.391998 29.024 0.615998 28.4827 1.064 28.072C1.54933 27.6614 2.10933 27.456 2.744 27.456H5.824V23.368H2.744C2.10933 23.368 1.54933 23.1627 1.064 22.752C0.615998 22.304 0.391998 21.7627 0.391998 21.128C0.391998 20.456 0.615998 19.9147 1.064 19.504C1.54933 19.0934 2.10933 18.888 2.744 18.888H5.824V3.93602C5.824 2.85335 6.12266 2.01336 6.72 1.41602C7.31733 0.818689 8.15733 0.52002 9.24 0.52002H19.208C23.4267 0.52002 26.6933 1.56535 29.008 3.65602C31.36 5.70935 32.536 8.41602 32.536 11.776C32.536 15.3974 31.36 18.2347 29.008 20.288C26.6933 22.3414 23.4267 23.368 19.208 23.368H12.768ZM12.712 18.888H17.696C23.1467 18.888 25.872 16.7974 25.872 12.616C25.872 10.3014 25.2187 8.60269 23.912 7.52002C22.6427 6.43735 20.6827 5.89602 18.032 5.89602H12.712V18.888Z" fill="#F8CE2A"/>
</svg>
