<svg width="35" height="35" viewBox="0 0 35 35" fill="none" xmlns="http://www.w3.org/2000/svg">
<g clip-path="url(#clip0)">
<path d="M17.5011 34.9964C7.83377 34.9964 -0.0012207 27.1614 -0.0012207 17.4976C-0.0012207 7.83139 7.83377 -0.00125122 17.5011 -0.00125122C27.1626 -0.00125122 34.9988 7.83139 34.9988 17.4976C34.9988 27.1614 27.1638 34.9964 17.5011 34.9964ZM17.4988 10.6907C18.6485 10.6907 19.5833 11.6265 19.5833 12.7752C19.5833 13.926 18.6485 14.8608 17.4988 14.8608C16.348 14.8608 15.4132 13.926 15.4132 12.7752C15.4132 11.6244 16.348 10.6907 17.4988 10.6907ZM22.5352 12.7752C22.5352 9.99727 20.2778 7.73675 17.4988 7.73675C14.7198 7.73675 12.4603 9.99727 12.4603 12.7752C12.4603 15.5532 14.7198 17.8116 17.4988 17.8116C20.2778 17.8116 22.5352 15.5532 22.5352 12.7752ZM19.5359 21.9217C20.5623 21.6856 21.5509 21.283 22.4614 20.7108C23.1517 20.2755 23.3603 19.3639 22.9261 18.6747C22.4898 17.9845 21.5815 17.7758 20.8901 18.21C18.8245 19.5083 16.1688 19.5083 14.1054 18.21C13.4151 17.7768 12.5024 17.9845 12.0704 18.6747C11.6351 19.3629 11.8438 20.2755 12.532 20.7108C13.4425 21.282 14.4321 21.6888 15.4575 21.9217L12.6405 24.7376C12.0651 25.314 12.0651 26.2509 12.6405 26.8253C12.9271 27.1119 13.3055 27.2573 13.6838 27.2573C14.0622 27.2573 14.4405 27.1119 14.7282 26.8253L17.4946 24.0578L20.263 26.8263C20.8395 27.4017 21.7743 27.4017 22.3486 26.8263C22.9272 26.2498 22.9272 25.313 22.3486 24.7397L19.5359 21.9217Z" fill="#F8CE2A"/>
</g>
<defs>
<clipPath id="clip0">
<rect width="35" height="35" fill="white"/>
</clipPath>
</defs>
</svg>
