<svg width="35" height="35" viewBox="0 0 35 35" fill="none" xmlns="http://www.w3.org/2000/svg">
<path d="M34.8258 17.5C34.8258 27.0674 27.0682 34.825 17.5008 34.825C7.93192 34.825 0.174316 27.0674 0.174316 17.5C0.174316 7.93115 7.93192 0.175003 17.5008 0.175003C27.0682 0.175003 34.8258 7.93115 34.8258 17.5ZM25.7097 21.1451C23.7986 19.371 24.0538 19.6569 26.3587 16.5878C27.7609 14.7197 28.3245 13.5793 28.1452 13.0907C27.9796 12.6248 26.9493 12.7488 26.9493 12.7488L23.5149 12.7699C23.5149 12.7699 23.259 12.7349 23.0709 12.8472C22.8893 12.9573 22.769 13.2154 22.769 13.2154C22.769 13.2154 22.228 14.6606 21.5046 15.8907C19.9778 18.4858 19.3645 18.6229 19.1152 18.4603C18.5347 18.0841 18.6798 16.9524 18.6798 16.1481C18.6798 13.6332 19.0605 12.5847 17.9361 12.3134C17.5635 12.223 17.2893 12.164 16.3356 12.1538C15.112 12.1421 14.0744 12.1589 13.4889 12.444C13.0981 12.6357 12.7969 13.0616 12.9807 13.0856C13.2067 13.1155 13.7215 13.2256 13.9928 13.5953C14.3457 14.0736 14.3311 15.1492 14.3311 15.1492C14.3311 15.1492 14.5367 18.1067 13.86 18.4749C13.3992 18.7279 12.7641 18.2124 11.4028 15.8587C10.7042 14.6541 10.1778 13.3204 10.1778 13.3204C10.1778 13.3204 10.0757 13.0696 9.89192 12.9361C9.6739 12.7743 9.36546 12.7189 9.36546 12.7189L6.10682 12.732C6.10682 12.732 5.61536 12.7298 5.43671 12.9427C5.27702 13.1316 5.42359 13.491 5.42359 13.491C5.42359 13.491 7.97494 19.4002 10.9456 22.4088C13.5983 25.1679 16.6068 24.8588 16.6068 24.8588H17.9682C17.9682 24.8588 18.3809 24.9411 18.5909 24.7209C18.7841 24.5109 18.7775 24.2499 18.7775 24.2499C18.7775 24.2499 18.7528 22.4182 19.6008 22.1477C20.4393 21.8852 21.5141 23.9189 22.6545 24.6976C23.5164 25.2897 24.1705 25.1592 24.1705 25.1592L27.2191 25.1183C27.2191 25.1183 28.8131 25.0192 28.0569 23.7635C27.9133 23.6622 27.5356 22.8382 25.7097 21.1451Z" fill="#F8CE2A"/>
</svg>
